<?xml version="1.0" encoding="iso-8859-1"?>
<!-- Generator: Adobe Illustrator 19.0.0, SVG Export Plug-In . SVG Version: 6.00 Build 0)  -->
<svg version="1.1" id="Layer_1" xmlns="http://www.w3.org/2000/svg" xmlns:xlink="http://www.w3.org/1999/xlink" x="0px" y="0px"
	 viewBox="0 0 512 512" style="enable-background:new 0 0 512 512;" xml:space="preserve">
<path style="fill:#D66965;" d="M109.766,90.055l66.251-77.339L64.624,66.696c-22.38,10.847-36.609,33.532-36.609,58.405v32.985
	v40.691v40.691v212.358h89.775v47.456h193.525V231.839L109.766,90.055z"/>
<g>
	<rect x="28.014" y="451.826" style="fill:#A14F4C;" width="89.775" height="47.456"/>
	<rect x="394.211" y="451.826" style="fill:#A14F4C;" width="89.775" height="47.456"/>
</g>
<path style="fill:#D66965;" d="M483.986,239.469v212.358h-89.775v47.456h-82.896V231.839l-29.489-47.749l120.408-94.035
	l-66.251-77.326v-0.013l111.393,53.98c22.38,10.847,36.609,33.532,36.609,58.405v32.985v40.691V239.469z"/>
<g>
	<polygon style="fill:#A14F4C;" points="281.826,184.09 311.315,231.839 109.766,90.055 176.016,12.716 257.348,144.442 	"/>
	<polygon style="fill:#A14F4C;" points="335.984,12.729 402.235,90.055 281.826,184.09 257.348,144.442 	"/>
</g>
<polygon style="fill:#4D2624;" points="335.984,12.729 257.348,144.442 176.016,12.716 335.971,12.716 "/>
<g>
	<path style="fill:#2E1C10;" d="M268.716,289.849c7.019,0,12.716-5.684,12.716-12.716c0-7.019-5.697-12.716-12.716-12.716
		S256,270.114,256,277.133C256,284.165,261.697,289.849,268.716,289.849z"/>
	<path style="fill:#2E1C10;" d="M394.211,191.822c-7.019,0-12.716,5.697-12.716,12.716c0,7.032,5.697,12.716,12.716,12.716
		c7.019,0,12.716-5.684,12.716-12.716C406.927,197.518,401.23,191.822,394.211,191.822z"/>
	<path style="fill:#2E1C10;" d="M268.716,320.368c-7.019,0-12.716,5.697-12.716,12.716c0,7.032,5.697,12.716,12.716,12.716
		s12.716-5.684,12.716-12.716C281.432,326.065,275.735,320.368,268.716,320.368z"/>
	<path style="fill:#2E1C10;" d="M268.716,376.319c-7.019,0-12.716,5.697-12.716,12.716c0,7.032,5.697,12.716,12.716,12.716
		s12.716-5.684,12.716-12.716C281.432,382.015,275.735,376.319,268.716,376.319z"/>
	<path style="fill:#2E1C10;" d="M268.716,432.269c-7.019,0-12.716,5.697-12.716,12.716c0,7.032,5.697,12.716,12.716,12.716
		s12.716-5.684,12.716-12.716C281.432,437.966,275.735,432.269,268.716,432.269z"/>
	<path style="fill:#2E1C10;" d="M496.702,499.284V125.1c0-29.541-17.184-56.958-43.78-69.848L341.529,1.273
		c-0.039-0.019-0.08-0.032-0.12-0.05c-0.099-0.047-0.2-0.089-0.299-0.132c-0.175-0.078-0.355-0.146-0.533-0.215
		c-0.036-0.014-0.07-0.029-0.106-0.042c-0.1-0.038-0.197-0.085-0.299-0.121c-0.074-0.025-0.15-0.042-0.224-0.066
		c-0.173-0.057-0.348-0.106-0.524-0.155c-0.17-0.047-0.338-0.102-0.51-0.142c-0.085-0.02-0.172-0.036-0.257-0.055
		c-0.137-0.029-0.276-0.05-0.415-0.075c-0.212-0.038-0.425-0.078-0.638-0.104c-0.103-0.013-0.206-0.029-0.309-0.039
		c-0.061-0.006-0.123-0.005-0.184-0.01c-0.029-0.003-0.059-0.003-0.088-0.005c-0.247-0.02-0.495-0.036-0.743-0.042
		C336.177,0.015,336.075,0,335.971,0H176.016c-0.086,0-0.172,0.013-0.257,0.014c-0.247,0.005-0.49,0.023-0.735,0.042
		c-0.239,0.019-0.476,0.039-0.713,0.071c-0.251,0.034-0.496,0.079-0.743,0.127c-0.23,0.046-0.459,0.094-0.687,0.151
		c-0.242,0.062-0.481,0.132-0.717,0.209c-0.226,0.072-0.45,0.149-0.673,0.234c-0.231,0.088-0.458,0.183-0.684,0.285
		c-0.111,0.05-0.226,0.086-0.336,0.14L59.078,55.252c-26.596,12.89-43.78,40.306-43.78,69.848v374.184
		c0,7.022,5.693,12.716,12.716,12.716h89.775h276.421h89.775C491.009,512,496.702,506.306,496.702,499.284z M471.27,125.1v20.269
		h-18.591c-7.023,0-12.716,5.694-12.716,12.716c0,7.022,5.693,12.716,12.716,12.716h18.591v15.259h-18.591
		c-7.023,0-12.716,5.694-12.716,12.716s5.693,12.716,12.716,12.716h18.591v15.259h-18.591c-7.023,0-12.716,5.694-12.716,12.716
		s5.693,12.716,12.716,12.716h18.591V439.11h-64.343V242.435c0-7.022-5.693-12.716-12.716-12.716s-12.716,5.694-12.716,12.716
		v244.132h-57.464V231.839c0-0.07-0.014-0.14-0.014-0.21c-0.008-0.439-0.038-0.875-0.09-1.309c-0.017-0.132-0.029-0.264-0.05-0.395
		c-0.078-0.512-0.181-1.02-0.32-1.52c-0.017-0.06-0.039-0.117-0.057-0.175c-0.134-0.45-0.295-0.891-0.477-1.326
		c-0.05-0.117-0.099-0.234-0.153-0.35c-0.217-0.477-0.456-0.946-0.734-1.396l0,0l0,0c-0.019-0.032-0.038-0.062-0.057-0.094
		l-23.442-37.965l111.427-87.021c2.737-2.138,4.48-5.3,4.826-8.756s-0.738-6.902-2.996-9.538l-26.593-31.039l56.533,27.395
		C459.715,86.807,471.27,105.241,471.27,125.1z M203.343,140.337l-74.819-52.634l45.821-53.49l72.05,116.689
		c0.019,0.033,0.041,0.066,0.061,0.099l21.467,34.767L203.343,140.337z M272.226,144.327l65.61-109.893l46.085,53.789
		l-98.729,77.104L272.226,144.327z M257.167,119.939l-58.354-94.507h114.778L257.167,119.939z M40.73,464.542h64.343v22.024H40.73
		V464.542z M130.505,204.539c0-7.022-5.693-12.716-12.716-12.716c-7.023,0-12.716,5.694-12.716,12.716v234.573H40.73V252.186h18.591
		c7.023,0,12.716-5.694,12.716-12.716s-5.693-12.716-12.716-12.716H40.73v-15.259h18.591c7.023,0,12.716-5.694,12.716-12.716
		c0-7.022-5.693-12.716-12.716-12.716H40.73v-15.259h18.591c7.023,0,12.716-5.694,12.716-12.716s-5.693-12.716-12.716-12.716H40.73
		V125.1c0-19.86,11.555-38.293,29.439-46.962l56.524-27.392l-26.584,31.035c-2.331,2.721-3.405,6.3-2.96,9.855
		c0.445,3.555,2.37,6.756,5.301,8.819l86.261,60.682l109.888,77.303v248.127H130.505V204.539z M406.927,486.568v-22.024h64.343
		v22.024H406.927z"/>
</g>
<g>
</g>
<g>
</g>
<g>
</g>
<g>
</g>
<g>
</g>
<g>
</g>
<g>
</g>
<g>
</g>
<g>
</g>
<g>
</g>
<g>
</g>
<g>
</g>
<g>
</g>
<g>
</g>
<g>
</g>
</svg>
