<?xml version="1.0" encoding="iso-8859-1"?>
<!-- Generator: Adobe Illustrator 19.0.0, SVG Export Plug-In . SVG Version: 6.00 Build 0)  -->
<svg version="1.1" id="Layer_1" xmlns="http://www.w3.org/2000/svg" xmlns:xlink="http://www.w3.org/1999/xlink" x="0px" y="0px"
	 viewBox="0 0 380 380" style="enable-background:new 0 0 380 380;" xml:space="preserve">
<g id="XMLID_1665_">
	<circle id="XMLID_1666_" style="fill:#FFDA44;" cx="290" cy="50" r="50"/>
	<circle id="XMLID_1667_" style="fill:#EA348B;" cx="290" cy="50" r="20"/>
	<circle id="XMLID_1668_" style="fill:#FF9811;" cx="90" cy="50" r="50"/>
	<circle id="XMLID_1669_" style="fill:#AF2768;" cx="90" cy="50" r="20"/>
	<path id="XMLID_1670_" style="fill:#FFDA44;" d="M190,30C82.307,30,60,106.112,60,200c0,93.889,52.68,170,130,170
		s140-76.111,140-170C330,106.112,297.693,30,190,30z"/>
	<path id="XMLID_1671_" style="fill:#FF9811;" d="M50,200c0,93.889,62.68,170,140,170c0-98,0-205,0-340C82.307,30,50,106.112,50,200
		z"/>
	<rect id="XMLID_1672_" x="95" y="270" style="fill:#FFFFFF;" width="190" height="110"/>
	<path id="XMLID_1673_" style="fill:#EA348B;" d="M285,270v-35c0-52.467-42.533-95-95-95s-95,42.533-95,95v35H285z"/>
	<circle id="XMLID_1674_" style="fill:#EA348B;" cx="285" cy="315" r="25"/>
	<path id="XMLID_1675_" style="fill:#AF2768;" d="M285,290c-13.807,0-25,11.193-25,25s11.193,25,25,25"/>
	<circle id="XMLID_1676_" style="fill:#EA348B;" cx="95" cy="315" r="25"/>
	<path id="XMLID_1677_" style="fill:#AF2768;" d="M95,290c-13.807,0-25,11.193-25,25s11.193,25,25,25"/>
</g>
<g>
</g>
<g>
</g>
<g>
</g>
<g>
</g>
<g>
</g>
<g>
</g>
<g>
</g>
<g>
</g>
<g>
</g>
<g>
</g>
<g>
</g>
<g>
</g>
<g>
</g>
<g>
</g>
<g>
</g>
</svg>
